<svg width="141" height="62" viewBox="0 0 141 62" fill="none" xmlns="http://www.w3.org/2000/svg">
<g clip-path="url(#clip0_539_21097)">
<path fill-rule="evenodd" clip-rule="evenodd" d="M78.7893 26.3039V31.5414C78.7893 32.0664 78.614 32.5532 78.2651 32.9465C77.8607 33.4039 77.2966 33.5911 76.6961 33.5911H73.6188C73.1155 33.5911 72.659 33.4039 72.2616 33.1042C71.786 32.7456 71.5222 32.2345 71.4927 31.6506V18.1937C72.0325 19.9575 72.9246 21.7195 74.3825 23.2892C75.646 24.651 77.1404 25.5658 78.7875 26.3039M79.6033 16.7591C79.8046 17.0502 80.0303 17.3257 80.2802 17.5821C80.8477 18.1677 81.5125 18.6251 82.2553 18.963C83.0086 19.306 83.8018 19.4671 84.6297 19.4671C85.4576 19.4671 86.2022 19.3112 86.9294 18.9682C87.6358 18.6355 88.2658 18.1798 88.7935 17.6029C89.3385 17.0052 89.755 16.3225 90.0518 15.5706C90.3625 14.784 90.5083 13.9628 90.5083 13.1173C90.5083 12.2718 90.3625 11.4679 90.0535 10.6917C89.7567 9.94668 89.3419 9.26925 88.7969 8.67844C88.2693 8.10669 87.641 7.65796 86.9363 7.3305C86.2056 6.99092 85.435 6.84192 84.6314 6.84192C83.8278 6.84192 83.0312 6.99785 82.2883 7.3305C81.5541 7.65796 80.8946 8.10149 80.327 8.66978C80.1483 8.84823 79.9817 9.03708 79.8272 9.23286C79.3638 5.60313 77.852 2.24714 74.7175 0.334386H77.4199C78.1749 0.334386 78.7945 0.951181 78.7945 1.70485V2.09468C79.1833 1.78974 79.5946 1.51253 80.0233 1.26304C80.7089 0.861087 81.4448 0.556155 82.2102 0.339584C83.078 0.0935588 83.9875 0 84.8883 0C86.0668 0 87.2349 0.152466 88.37 0.476457C89.4513 0.783121 90.4874 1.22319 91.4525 1.79841C92.4071 2.36669 93.2818 3.04759 94.0576 3.84457C94.8317 4.63982 95.4982 5.53209 96.0484 6.49714C96.6108 7.4847 97.036 8.53637 97.3293 9.63309C97.9281 11.8646 97.9281 14.3907 97.3293 16.6205C97.0342 17.7173 96.6108 18.7689 96.0484 19.7565C95.4965 20.725 94.8283 21.6155 94.0542 22.4177C93.2818 23.2199 92.4105 23.9043 91.4525 24.4725C90.4805 25.0495 89.4391 25.4878 88.3526 25.7945C83.1527 27.3243 78.3762 25.4185 75.2625 22.2427C73.6952 20.55 72.6295 18.7949 72.1401 16.8371C71.5847 14.6125 71.576 13.9177 71.5118 12.2181V12.2146V12.2077V12.1869L71.5083 12.18V12.1765V12.1661C71.4632 11.7191 71.4319 11.2704 71.4146 10.8164L71.4059 10.8303C71.4042 10.7887 71.4024 10.7454 71.4007 10.7038L71.3833 10.7107C71.3504 10.3278 71.2792 9.95015 71.1681 9.57938C71.0241 9.10638 70.8036 8.66631 70.4895 8.28168C70.1771 7.90052 69.79 7.60944 69.3492 7.39114C68.8389 7.13819 68.2401 7.06022 67.676 7.06022C67.1553 7.06022 66.6433 7.14338 66.1608 7.34263C65.7165 7.52628 65.3294 7.78963 65.0014 8.14134C64.6491 8.51904 64.3939 8.96778 64.2117 9.44943C63.9965 10.016 63.9114 10.6155 63.9114 11.2184V23.5473C63.9114 24.9109 63.1356 25.8569 61.728 25.8569H58.892C58.2689 25.8569 57.5989 25.7373 57.1702 25.2418C56.7849 24.7983 56.6895 24.1901 56.6895 23.6201V11.2167C56.6895 10.6726 56.6166 10.139 56.4638 9.61749C56.3233 9.1393 56.1063 8.7027 55.7991 8.31113C55.4971 7.9265 55.1118 7.63543 54.6744 7.41713C54.1607 7.16071 53.5688 7.07581 52.9995 7.07581C52.5309 7.07581 52.0796 7.16764 51.6422 7.33223C51.1806 7.50722 50.7675 7.76364 50.3961 8.08937C50.0108 8.42722 49.7105 8.8361 49.4814 9.2935C49.2332 9.78728 49.1308 10.3313 49.1221 10.8649V23.7864C49.1221 24.2005 49.0024 25.2245 48.4227 24.9299C44.5123 22.6516 42.0911 18.4501 41.7891 14.9088V2.47931C41.7891 1.7291 42.1258 1.07419 42.8131 0.738075C43.3129 0.493782 43.8736 0.410619 44.4238 0.410619H46.3017C46.9335 0.410619 47.508 0.646248 47.8881 1.16082C48.0825 1.42417 48.2335 1.71351 48.3341 2.02191C48.683 1.71005 49.0631 1.4363 49.471 1.19894C50.1062 0.828168 50.8039 0.56655 51.5155 0.381165C52.3747 0.157664 53.2807 0.0779656 54.1659 0.0779656C55.051 0.0779656 55.9032 0.157664 56.745 0.356909C57.5087 0.537096 58.2411 0.81604 58.9215 1.20933C59.5706 1.58703 60.1573 2.05309 60.6762 2.59366C60.8585 2.78424 61.032 2.98175 61.1969 3.18446C61.3653 2.98522 61.5458 2.7929 61.7367 2.61098C62.3251 2.04963 62.9968 1.5853 63.7205 1.21453C64.4825 0.824703 65.293 0.537096 66.1261 0.343049C67.0078 0.136873 67.9086 0.0398491 68.8146 0.0398491C68.8684 0.0398491 68.9222 0.0398491 68.9743 0.0398491C69.0315 0.0398491 69.0871 0.0415817 69.1444 0.0433142C69.7432 0.0589074 70.3367 0.117815 70.9199 0.226967V0.233897L71.2584 0.306665C71.5725 0.374235 71.8815 0.459131 72.1869 0.55962C72.305 0.599469 72.423 0.642783 72.5393 0.689563H72.5427C72.5618 0.69476 72.5792 0.701691 72.5983 0.708621L72.7493 0.767528L72.7597 0.762331C73.874 1.22493 74.832 1.89716 75.6339 2.73573C75.6495 2.75132 75.6651 2.76691 75.679 2.78251C75.8699 2.98522 76.0539 3.19832 76.2275 3.42182C76.25 3.45128 76.2709 3.479 76.2934 3.50845L76.2969 3.51365C76.3039 3.52231 76.3108 3.53098 76.316 3.53964C76.3247 3.5535 76.3351 3.56563 76.3438 3.57776C76.3525 3.58988 76.3594 3.60028 76.3681 3.61241C76.3785 3.62627 76.3872 3.6384 76.3976 3.65226C76.4063 3.66438 76.4149 3.67651 76.4236 3.68691C76.4323 3.69904 76.441 3.71116 76.4514 3.72502C76.4601 3.73715 76.467 3.74928 76.4757 3.75968C76.4844 3.77354 76.4948 3.7874 76.5052 3.80126C76.5121 3.81165 76.5191 3.82032 76.526 3.83071C76.5364 3.8463 76.5468 3.86016 76.5573 3.87576C76.5642 3.88615 76.5729 3.89828 76.5798 3.90868C76.5885 3.92254 76.5989 3.9364 76.6076 3.95026C76.6163 3.96239 76.6232 3.97451 76.6319 3.98664C76.6406 4.0005 76.6492 4.01263 76.6579 4.02649C76.6649 4.03689 76.6718 4.04728 76.6787 4.05768C76.6892 4.07327 76.6978 4.08886 76.7083 4.10446C76.7135 4.11312 76.7187 4.12178 76.7256 4.13045C76.736 4.14777 76.7464 4.16336 76.7569 4.18069C76.7638 4.19109 76.769 4.20148 76.7759 4.21188C76.7846 4.22747 76.795 4.24306 76.8055 4.25866C76.8107 4.26732 76.8159 4.27771 76.8228 4.28638C76.8488 4.32969 76.8749 4.37127 76.8992 4.41459C76.9148 4.44058 76.9304 4.46656 76.9443 4.49255C76.9599 4.51854 76.9738 4.54453 76.9894 4.57052C76.9998 4.59131 77.012 4.61037 77.0224 4.63116L77.0328 4.65022C77.045 4.67101 77.0554 4.6918 77.0675 4.71259L77.0762 4.72991C77.0866 4.74897 77.097 4.7663 77.1057 4.78536C77.1109 4.79402 77.1144 4.80095 77.1196 4.80961C77.1283 4.82521 77.1352 4.83907 77.1439 4.85466C77.1508 4.86679 77.156 4.87892 77.163 4.89104C77.1699 4.9049 77.1769 4.91703 77.1838 4.93089C77.1908 4.94475 77.1977 4.95861 77.2046 4.97074C77.2133 4.98633 77.2203 5.00193 77.2289 5.01752C77.2342 5.02792 77.2411 5.04004 77.2463 5.05044C77.255 5.06603 77.2619 5.08336 77.2706 5.09895L77.2862 5.13187C77.2932 5.14746 77.3018 5.16306 77.3088 5.18038C77.314 5.19251 77.3192 5.20291 77.3261 5.21503C77.3331 5.23063 77.3418 5.24622 77.3487 5.26181C77.3539 5.27394 77.3591 5.28434 77.3643 5.29646C77.3713 5.31206 77.3782 5.32765 77.3869 5.34324L77.4042 5.37963C77.4112 5.39349 77.4164 5.40735 77.4233 5.42121C77.4303 5.43507 77.4355 5.44893 77.4424 5.46279C77.4494 5.47665 77.4563 5.49224 77.4615 5.50611C77.4667 5.51823 77.4719 5.53036 77.4789 5.54422C77.4858 5.55982 77.4928 5.57714 77.4997 5.59273C77.5049 5.60486 77.5101 5.61699 77.5153 5.62912C77.5223 5.64471 77.5292 5.6603 77.5344 5.6759C77.5396 5.68802 77.5448 5.70015 77.55 5.71401C77.557 5.72961 77.5639 5.7452 77.5691 5.76079L77.5847 5.79891L77.6021 5.84222L77.6195 5.88381C77.6247 5.89767 77.6299 5.91153 77.6368 5.92539C77.642 5.93925 77.649 5.95484 77.6542 5.9687C77.6594 5.98256 77.6646 5.99642 77.6698 6.01028C77.675 6.02414 77.6802 6.038 77.6854 6.05186C77.6906 6.06746 77.6976 6.08132 77.7028 6.09691C77.708 6.11077 77.7132 6.12463 77.7184 6.13849L77.7357 6.18181C77.741 6.19567 77.7462 6.20953 77.7514 6.22339C77.7566 6.23898 77.7618 6.25284 77.7687 6.26844L77.7826 6.30828L77.8 6.35506L77.8139 6.39491L77.8295 6.43996L77.8434 6.48327L77.859 6.52832L77.8729 6.56817L77.8885 6.61668L77.9006 6.6548L77.9163 6.70331L77.9284 6.74316L77.944 6.78994L77.9562 6.83152L77.9701 6.87657L77.9822 6.91815C77.9874 6.93374 77.9909 6.94934 77.9961 6.96493L78.0082 7.00651C78.0117 7.02037 78.0169 7.03596 78.0204 7.04982C78.0256 7.06542 78.0291 7.07928 78.0343 7.09487L78.0464 7.13819L78.0586 7.17977C78.0638 7.19536 78.0673 7.21269 78.0725 7.22828L78.0829 7.2664C78.0863 7.28199 78.0916 7.29931 78.0968 7.31491L78.1089 7.35822L78.1211 7.40154L78.1332 7.44658L78.1454 7.49163L78.1558 7.53321C78.1592 7.5488 78.1644 7.5644 78.1679 7.58172L78.1783 7.62331L78.1905 7.67008L78.2009 7.7134C78.2044 7.72899 78.2078 7.74458 78.2113 7.75845L78.2217 7.80003C78.2252 7.81562 78.2287 7.83295 78.2321 7.84854C78.2356 7.86067 78.2373 7.87279 78.2408 7.88666C78.2443 7.90398 78.2495 7.92131 78.253 7.93863L78.2616 7.97502C78.2651 7.99234 78.2686 8.00794 78.2721 8.02526C78.2755 8.04259 78.279 8.05818 78.2825 8.07551L78.2912 8.11362C78.2946 8.12921 78.2981 8.14654 78.3016 8.16213L78.3102 8.20545C78.3137 8.21931 78.3155 8.23317 78.3189 8.24703C78.3224 8.26262 78.3259 8.27822 78.3276 8.29381C78.3311 8.3094 78.3328 8.32326 78.3363 8.33886C78.3397 8.35445 78.3415 8.36831 78.345 8.3839C78.3484 8.40123 78.3519 8.41682 78.3536 8.43415C78.3554 8.44801 78.3588 8.46014 78.3606 8.474C78.364 8.48959 78.3658 8.50345 78.3693 8.51904C78.371 8.53464 78.3745 8.5485 78.3779 8.56409L78.3831 8.59528C78.3866 8.61433 78.3901 8.63513 78.3936 8.65418C78.3988 8.68364 78.404 8.71309 78.4074 8.74081C78.4126 8.772 78.4161 8.80145 78.4213 8.83091V8.83437L78.4283 8.87249V8.87768C78.5255 9.47542 78.5879 10.0801 78.6209 10.6848L78.6678 11.5458L78.6713 11.6065V14.7216C78.7459 15.0041 78.8396 15.283 78.9559 15.5567C79.1381 15.9847 79.3586 16.3884 79.6206 16.7661" fill="#023047"/>
<path d="M20.2881 45.4328C19.7952 44.5717 19.1478 43.8978 18.3633 43.4317C17.5753 42.9639 16.7179 42.7266 15.8171 42.7266C14.9163 42.7266 14.111 42.8981 13.4479 43.2377C12.8006 43.5703 12.2677 43.9671 11.8633 44.4176C11.6898 44.6116 11.5388 44.7901 11.4068 44.9581C11.0007 44.35 10.4904 43.8527 9.88469 43.475C9.08457 42.9778 8.2046 42.7266 7.26562 42.7266C6.12531 42.7266 5.18807 42.9882 4.4782 43.5062C4.21785 43.6951 3.98181 43.8909 3.77353 44.0918V42.9327H0.96875V56.6911H3.77353V48.548C3.77353 47.5137 4.06512 46.7409 4.66738 46.1848C5.27833 45.62 5.98473 45.3462 6.82651 45.3462C7.61969 45.3462 8.26361 45.6252 8.79298 46.1986C9.33276 46.7825 9.59484 47.5431 9.59484 48.522V56.6911H12.3996V48.548C12.3996 47.5137 12.6929 46.7409 13.2935 46.1848C13.9044 45.62 14.6108 45.3462 15.4526 45.3462C16.2458 45.3462 16.888 45.6252 17.4191 46.1986C17.9589 46.7842 18.2209 47.5431 18.2209 48.522V56.6911H21.0257V48.4718C21.0257 47.3179 20.7758 46.2957 20.2846 45.4328H20.2881Z" fill="#023047"/>
<path d="M47.8503 42.9249V44.2521C47.4841 43.909 47.071 43.6162 46.6145 43.3754C45.7884 42.9405 44.7939 42.7188 43.6622 42.7188C42.331 42.7188 41.1456 43.0306 40.1406 43.6457C39.1392 44.2607 38.3529 45.1062 37.801 46.1614C37.2543 47.2078 36.9766 48.3981 36.9766 49.701C36.9766 51.0039 37.2543 52.1734 37.7993 53.2268C38.3512 54.2906 39.1374 55.1413 40.1389 55.7563C41.1421 56.3714 42.3275 56.685 43.6605 56.685C44.7973 56.685 45.7918 56.4546 46.6197 55.9989C47.0745 55.7494 47.4858 55.4531 47.8486 55.1136V55.7355C47.8486 56.9362 47.5466 57.8527 46.9512 58.4626C46.3594 59.069 45.3718 59.3757 44.0198 59.3757C43.1172 59.3757 42.3709 59.2163 41.8016 58.901C41.2497 58.596 40.8731 58.1819 40.6509 57.6344L40.5416 57.3642H37.5094L37.6916 57.9307C38.0804 59.1366 38.832 60.1276 39.9254 60.8761C41.0102 61.6194 42.423 61.9953 44.1222 61.9953C46.1719 61.9953 47.7878 61.4617 48.9247 60.41C50.0702 59.3497 50.6516 57.8198 50.6516 55.8638V42.9249H47.8468H47.8503ZM47.9527 49.701C47.9527 50.5084 47.7896 51.2569 47.4667 51.9239C47.1491 52.5788 46.6892 53.1055 46.0973 53.4901C45.5089 53.8713 44.7748 54.0653 43.9174 54.0653C43.06 54.0653 42.3084 53.8713 41.694 53.4867C41.0692 53.0986 40.6058 52.5857 40.2777 51.9222C39.948 51.2569 39.7796 50.5101 39.7796 49.7027C39.7796 48.8954 39.9462 48.1313 40.276 47.4729C40.604 46.818 41.0674 46.3086 41.694 45.9188C42.3102 45.5342 43.0582 45.3401 43.9174 45.3401C44.7765 45.3401 45.5072 45.5342 46.0956 45.9153C46.6892 46.3 47.1491 46.8232 47.4667 47.4695C47.7896 48.1278 47.9527 48.8798 47.9527 49.7027V49.701Z" fill="#023047"/>
<path d="M63.2175 42.9267V44.2763C62.853 43.9333 62.4399 43.637 61.9835 43.3893C61.1573 42.944 60.161 42.7188 59.0277 42.7188C57.693 42.7188 56.5058 43.041 55.5026 43.6751C54.5029 44.3058 53.7166 45.1703 53.1664 46.2411C52.6215 47.3031 52.3438 48.5021 52.3438 49.8032C52.3438 51.1044 52.6197 52.2808 53.1664 53.3515C53.7166 54.4327 54.5029 55.3007 55.5043 55.9331C56.5093 56.5672 57.6947 56.8894 59.0294 56.8894C60.1645 56.8894 61.159 56.6642 61.9852 56.2189C62.4417 55.9729 62.853 55.6801 63.2192 55.3405V56.6833H66.024V42.9249H63.2192L63.2175 42.9267ZM63.3199 49.8067C63.3199 50.6175 63.1602 51.3764 62.8426 52.0625C62.5337 52.733 62.0772 53.2753 61.4836 53.6755C60.8969 54.0723 60.1558 54.2715 59.2845 54.2715C58.4133 54.2715 57.6808 54.0688 57.0664 53.6703C56.4485 53.2701 55.9695 52.7261 55.6449 52.0538C55.3134 51.3695 55.1451 50.6123 55.1451 49.805C55.1451 48.9976 55.3134 48.2214 55.6432 47.5457C55.9678 46.8821 56.4468 46.3416 57.0664 45.9396C57.6791 45.5411 58.4254 45.3384 59.2828 45.3384C60.1402 45.3384 60.8935 45.5394 61.4801 45.9344C62.0737 46.3364 62.5319 46.8752 62.8409 47.537C63.1567 48.2145 63.3164 48.9768 63.3164 49.8032L63.3199 49.8067Z" fill="#023047"/>
<path d="M81.3715 46.2411C80.8213 45.1703 80.035 44.3058 79.0353 43.6751C78.0304 43.041 76.8449 42.7188 75.5102 42.7188C74.3769 42.7188 73.3823 42.9388 72.5562 43.3754C72.0997 43.6162 71.6866 43.909 71.3204 44.2521V42.9249H68.5156V61.7891H71.3204V55.318C71.6849 55.6576 72.0945 55.9539 72.5492 56.2033C73.3754 56.659 74.3716 56.8894 75.5102 56.8894C76.8449 56.8894 78.0304 56.5672 79.0353 55.9331C80.035 55.3007 80.8213 54.4327 81.3732 53.3515C81.9182 52.2808 82.1959 51.0871 82.1959 49.8032C82.1959 48.5194 81.9199 47.3031 81.3732 46.2411H81.3715ZM79.3894 49.8032C79.3894 50.6106 79.221 51.366 78.8895 52.0521C78.5632 52.7243 78.0894 53.2701 77.4784 53.6703C76.8727 54.0688 76.1229 54.2698 75.2499 54.2698C74.3769 54.2698 73.6583 54.0688 73.063 53.6721C72.4624 53.2718 72.0008 52.7295 71.6936 52.059C71.3777 51.3729 71.2163 50.6141 71.2163 49.8032C71.2163 48.9924 71.3759 48.2145 71.6936 47.537C72.0008 46.8752 72.4625 46.3364 73.0647 45.9361C73.6618 45.5394 74.3977 45.3384 75.2516 45.3384C76.1055 45.3384 76.8744 45.5394 77.4802 45.9379C78.0911 46.3398 78.5667 46.8821 78.8912 47.5457C79.2227 48.2214 79.3894 48.982 79.3894 49.805V49.8032Z" fill="#16DB65"/>
<path d="M93.9614 42.9267V44.2763C93.5969 43.9333 93.1839 43.637 92.7274 43.3893C91.9012 42.944 90.905 42.7188 89.7716 42.7188C88.4369 42.7188 87.2497 43.041 86.2448 43.6751C85.2451 44.3058 84.4588 45.1703 83.9086 46.2411C83.3636 47.3031 83.0859 48.5021 83.0859 49.8032C83.0859 51.1044 83.3619 52.2808 83.9086 53.3515C84.4588 54.4327 85.2451 55.3007 86.2465 55.9331C87.2515 56.5672 88.4369 56.8894 89.7733 56.8894C90.9084 56.8894 91.9029 56.6642 92.7291 56.2189C93.1856 55.9729 93.5969 55.6801 93.9614 55.3405V56.6833H96.7662V42.9249H93.9614V42.9267ZM94.0638 49.8067C94.0638 50.6175 93.9041 51.3764 93.5865 52.0625C93.2776 52.733 92.8211 53.2753 92.2275 53.6755C91.6409 54.0723 90.8997 54.2715 90.0285 54.2715C89.1572 54.2715 88.4247 54.0688 87.8103 53.6703C87.1924 53.2701 86.7134 52.7261 86.3888 52.0538C86.0573 51.3695 85.889 50.6123 85.889 49.805C85.889 48.9976 86.0573 48.2214 86.3871 47.5457C86.7117 46.8821 87.1907 46.3416 87.8103 45.9396C88.423 45.5411 89.1693 45.3384 90.0267 45.3384C90.8841 45.3384 91.6374 45.5394 92.224 45.9344C92.8176 46.3364 93.2758 46.8752 93.5848 47.537C93.9007 48.2145 94.0603 48.9768 94.0603 49.8032L94.0638 49.8067Z" fill="#16DB65"/>
<path d="M109.327 42.9249V44.2521C108.961 43.909 108.548 43.6162 108.091 43.3754C107.263 42.9405 106.27 42.7188 105.139 42.7188C103.808 42.7188 102.622 43.0306 101.617 43.6457C100.616 44.2607 99.8295 45.1062 99.2776 46.1614C98.7308 47.2078 98.4531 48.3981 98.4531 49.701C98.4531 51.0039 98.7308 52.1734 99.2758 53.2268C99.8278 54.2906 100.614 55.1413 101.615 55.7563C102.619 56.3714 103.804 56.685 105.137 56.685C106.272 56.685 107.268 56.4546 108.096 55.9989C108.551 55.7494 108.962 55.4531 109.325 55.1136V55.7355C109.325 56.9362 109.023 57.8527 108.428 58.4626C107.836 59.069 106.848 59.3757 105.496 59.3757C104.594 59.3757 103.847 59.2163 103.278 58.901C102.726 58.596 102.35 58.1819 102.127 57.6344L102.018 57.3642H98.986L99.1682 57.9307C99.557 59.1366 100.309 60.1276 101.402 60.8761C102.487 61.6194 103.9 61.9953 105.599 61.9953C107.649 61.9953 109.264 61.4617 110.401 60.41C111.547 59.3497 112.128 57.8198 112.128 55.8638V42.9249H109.323H109.327ZM109.429 49.701C109.429 50.5084 109.266 51.2569 108.943 51.9239C108.626 52.5788 108.166 53.1055 107.574 53.4901C106.986 53.8713 106.251 54.0653 105.394 54.0653C104.537 54.0653 103.785 53.8713 103.171 53.4867C102.546 53.0986 102.082 52.5857 101.754 51.9222C101.425 51.2551 101.256 50.5084 101.256 49.7027C101.256 48.8971 101.423 48.1313 101.753 47.4729C102.081 46.818 102.544 46.3086 103.171 45.9188C103.787 45.5342 104.535 45.3401 105.394 45.3401C106.253 45.3401 106.984 45.5342 107.572 45.9153C108.166 46.3 108.626 46.8232 108.943 47.4695C109.266 48.1278 109.429 48.8798 109.429 49.7027V49.701Z" fill="#16DB65"/>
<path d="M126.676 46.2411C126.124 45.1686 125.329 44.3041 124.31 43.6734C123.29 43.0393 122.061 42.7188 120.659 42.7188C119.256 42.7188 118.052 43.0393 117.023 43.6717C115.995 44.3041 115.195 45.1669 114.643 46.2411C114.098 47.3031 113.82 48.5021 113.82 49.8032C113.82 51.1044 114.096 52.2808 114.643 53.3515C115.193 54.4344 115.995 55.3024 117.024 55.9348C118.054 56.5672 119.277 56.8877 120.66 56.8877C122.044 56.8877 123.292 56.5672 124.312 55.9331C125.331 55.3007 126.128 54.4327 126.68 53.3498C127.225 52.2791 127.502 51.0853 127.502 49.8015C127.502 48.5177 127.226 47.3014 126.68 46.2393L126.676 46.2411ZM124.694 49.8032C124.694 50.6123 124.534 51.3712 124.217 52.059C123.908 52.7313 123.45 53.2736 122.858 53.6738C122.271 54.0705 121.53 54.2698 120.659 54.2698C119.787 54.2698 119.067 54.0688 118.472 53.6721C117.871 53.2718 117.41 52.7295 117.101 52.059C116.785 51.3729 116.623 50.6141 116.623 49.8032C116.623 48.9924 116.783 48.2145 117.101 47.537C117.408 46.8752 117.87 46.3364 118.472 45.9361C119.069 45.5394 119.805 45.3384 120.659 45.3384C121.513 45.3384 122.269 45.5394 122.856 45.9344C123.45 46.3346 123.908 46.8752 124.217 47.537C124.533 48.2162 124.694 48.9785 124.694 49.8032Z" fill="#16DB65"/>
<path d="M139.299 50.3836C138.843 49.8604 138.247 49.4515 137.53 49.1708C136.855 48.904 136.13 48.6927 135.377 48.5437C134.658 48.3998 133.965 48.2456 133.318 48.0828C132.716 47.9321 132.223 47.7311 131.851 47.485C131.562 47.291 131.424 47.0294 131.424 46.6603C131.424 46.2913 131.424 45.2362 134.064 45.2362C135.04 45.2362 135.732 45.4025 136.123 45.7282C136.513 46.0539 136.729 46.4264 136.784 46.8683L136.831 47.2477H139.662L139.61 46.7678C139.533 46.0643 139.289 45.4008 138.879 44.7926C138.468 44.1828 137.864 43.6769 137.084 43.2922C136.312 42.9128 135.314 42.7188 134.115 42.7188C132.355 42.7188 130.994 43.0739 130.069 43.7739C129.107 44.5016 128.618 45.5324 128.618 46.8388C128.618 47.7363 128.864 48.4639 129.35 48.9993C129.809 49.5052 130.404 49.8985 131.119 50.1688C131.791 50.4252 132.511 50.6349 133.263 50.7943C133.979 50.9467 134.674 51.1061 135.326 51.2673C135.925 51.418 136.414 51.6242 136.781 51.884C137.079 52.0954 137.218 52.3761 137.218 52.7694C137.218 53.0934 137.135 53.3463 136.965 53.5404C136.768 53.7639 136.531 53.9285 136.241 54.0411C135.923 54.1641 135.588 54.2525 135.243 54.2992C134.884 54.3478 134.582 54.372 134.346 54.372C133.587 54.372 132.973 54.2611 132.52 54.0411C132.081 53.8297 131.754 53.5542 131.549 53.2233C131.334 52.8751 131.202 52.5147 131.159 52.1491L131.114 51.768H128.25L128.281 52.2306C128.339 53.0587 128.606 53.8384 129.076 54.5435C129.548 55.2504 130.236 55.8256 131.121 56.2536C131.994 56.6763 133.07 56.8894 134.32 56.8894C136.003 56.8894 137.378 56.5291 138.402 55.8204C139.476 55.0772 140.021 53.9891 140.021 52.5892C140.021 51.6779 139.776 50.9363 139.294 50.3836H139.299Z" fill="#16DB65"/>
<path d="M32.5867 52.8794C32.3246 53.2121 32.0087 53.5014 31.6407 53.7422C31.0957 54.0974 30.4015 54.2776 29.5788 54.2776C28.7561 54.2776 28.1052 54.1095 27.5186 53.7786C26.932 53.4477 26.4599 52.9955 26.1127 52.4324C25.8437 51.9975 25.6493 51.5228 25.5296 51.0169H36.2645V49.811C36.2645 48.5099 35.9885 47.3109 35.4418 46.2489C34.8898 45.1764 34.0949 44.3119 33.0761 43.6812C32.0555 43.0471 30.8267 42.7266 29.4243 42.7266C28.0219 42.7266 26.8174 43.0471 25.7882 43.6795C24.7607 44.3119 23.9606 45.1747 23.4086 46.2489C22.8636 47.3109 22.5859 48.5099 22.5859 49.811C22.5859 51.1122 22.8775 52.2938 23.4503 53.3663C24.0282 54.4457 24.8492 55.3137 25.8941 55.9443C26.9389 56.5767 28.1712 56.8955 29.5545 56.8955C31.1773 56.8955 32.5294 56.497 33.5742 55.7122C34.0533 55.3518 34.4715 54.9394 34.8326 54.4803L32.5884 52.876L32.5867 52.8794ZM26.7462 46.3286C27.4179 45.6667 28.2927 45.3445 29.4243 45.3445C30.556 45.3445 31.4377 45.6667 32.118 46.3303C32.696 46.8934 33.0796 47.557 33.2844 48.347H25.5747C25.7916 47.5622 26.1839 46.8847 26.7462 46.3286Z" fill="#023047"/>
</g>
<defs>
<clipPath id="clip0_539_21097">
<rect width="139.057" height="62" fill="white" transform="translate(0.96875)"/>
</clipPath>
</defs>
</svg>
